<?xml version="1.0" standalone="no"?>
<!DOCTYPE svg PUBLIC "-//W3C//DTD SVG 20010904//EN"
 "http://www.w3.org/TR/2001/REC-SVG-20010904/DTD/svg10.dtd">
<svg version="1.0" xmlns="http://www.w3.org/2000/svg"
 width="512.000000pt" height="512.000000pt" viewBox="0 0 512.000000 512.000000"
 preserveAspectRatio="xMidYMid meet">

<g transform="translate(0.000000,512.000000) scale(0.100000,-0.100000)"
fill="#000000" stroke="none">
<path d="M390 5104 c-30 -8 -80 -26 -110 -41 -72 -35 -188 -151 -223 -223 -61
-126 -57 23 -57 -2280 0 -2303 -4 -2154 57 -2280 35 -72 151 -188 223 -223
126 -61 -23 -57 2280 -57 2303 0 2154 -4 2280 57 72 35 188 151 223 223 61
126 57 -23 57 2280 0 2303 4 2154 -57 2280 -35 72 -151 188 -223 223 -127 61
23 57 -2285 56 -1816 0 -2118 -2 -2165 -15z m2212 -924 c71 -21 79 -26 86 -54
5 -17 123 -543 263 -1168 140 -626 256 -1138 259 -1138 3 0 101 469 219 1043
118 573 228 1106 244 1185 l30 142 214 0 213 0 -5 -22 c-3 -13 -160 -736 -350
-1608 -190 -872 -349 -1601 -353 -1620 l-8 -35 -305 -3 -305 -2 -239 1022
c-131 563 -245 1052 -253 1088 -11 46 -17 59 -22 45 -3 -11 -116 -500 -251
-1087 l-244 -1068 -209 0 -208 0 6 33 c3 19 152 695 330 1503 179 808 323
1471 320 1473 -11 11 -237 -115 -301 -169 -212 -176 -316 -440 -300 -765 8
-165 24 -223 105 -389 3 -4 -29 -5 -69 -1 -278 26 -418 131 -459 343 -20 97
-8 286 24 395 101 343 360 620 726 775 199 85 344 112 585 109 155 -3 191 -6
257 -27z"/>
</g>
</svg>
